<mxfile host="app.diagrams.net" modified="2022-04-28T05:39:41.666Z" agent="5.0 (Macintosh; Intel Mac OS X 10_15_7) AppleWebKit/605.1.15 (KHTML, like Gecko) Version/15.4 Safari/605.1.15" etag="c5wZIxQQjtJuYarXm388" version="17.4.6" type="github">
  <diagram name="Page-1" id="e7e014a7-5840-1c2e-5031-d8a46d1fe8dd">
    <mxGraphModel dx="836" dy="494" grid="1" gridSize="10" guides="1" tooltips="1" connect="1" arrows="1" fold="1" page="1" pageScale="1" pageWidth="1169" pageHeight="826" background="none" math="0" shadow="0">
      <root>
        <mxCell id="0" />
        <mxCell id="1" parent="0" />
        <mxCell id="2" value="Admin" style="swimlane;whiteSpace=wrap;fontStyle=0" parent="1" vertex="1">
          <mxGeometry x="164.5" y="128" width="280" height="570" as="geometry" />
        </mxCell>
        <mxCell id="5" value="" style="ellipse;shape=startState;fillColor=#000000;strokeColor=#ff0000;" parent="2" vertex="1">
          <mxGeometry x="100" y="40" width="30" height="30" as="geometry" />
        </mxCell>
        <mxCell id="i86bepWs2Cm8whGIE65p-43" value="Đăng nhập admin" style="rounded=1;whiteSpace=wrap;html=1;" parent="2" vertex="1">
          <mxGeometry x="55" y="120" width="120" height="30" as="geometry" />
        </mxCell>
        <mxCell id="i86bepWs2Cm8whGIE65p-44" value="" style="endArrow=classic;html=1;rounded=0;exitX=0.5;exitY=1;exitDx=0;exitDy=0;entryX=0.5;entryY=0;entryDx=0;entryDy=0;" parent="2" source="5" target="i86bepWs2Cm8whGIE65p-43" edge="1">
          <mxGeometry width="50" height="50" relative="1" as="geometry">
            <mxPoint x="235.5" y="282" as="sourcePoint" />
            <mxPoint x="285.5" y="232" as="targetPoint" />
          </mxGeometry>
        </mxCell>
        <mxCell id="i86bepWs2Cm8whGIE65p-45" value="Chọn quản lý đơn hàng" style="rounded=1;whiteSpace=wrap;html=1;" parent="2" vertex="1">
          <mxGeometry x="55" y="192" width="120" height="40" as="geometry" />
        </mxCell>
        <mxCell id="i86bepWs2Cm8whGIE65p-49" value="Thực hiện cập nhật đơn hàng" style="rounded=1;whiteSpace=wrap;html=1;" parent="2" vertex="1">
          <mxGeometry x="55" y="265" width="120" height="40" as="geometry" />
        </mxCell>
        <mxCell id="i86bepWs2Cm8whGIE65p-51" value="Xác nhận lưu thông tin đơn hàng" style="rounded=1;whiteSpace=wrap;html=1;" parent="2" vertex="1">
          <mxGeometry x="55" y="342" width="120" height="40" as="geometry" />
        </mxCell>
        <mxCell id="i86bepWs2Cm8whGIE65p-52" value="" style="endArrow=classic;html=1;rounded=0;exitX=0.513;exitY=0.975;exitDx=0;exitDy=0;exitPerimeter=0;" parent="2" source="i86bepWs2Cm8whGIE65p-49" edge="1">
          <mxGeometry width="50" height="50" relative="1" as="geometry">
            <mxPoint x="235.5" y="372" as="sourcePoint" />
            <mxPoint x="116.5" y="342" as="targetPoint" />
          </mxGeometry>
        </mxCell>
        <mxCell id="3" value="Hệ thống" style="swimlane;whiteSpace=wrap;fontStyle=0" parent="1" vertex="1">
          <mxGeometry x="444.5" y="128" width="280" height="570" as="geometry" />
        </mxCell>
        <mxCell id="26" value="" style="edgeStyle=elbowEdgeStyle;elbow=horizontal;verticalAlign=bottom;endArrow=open;endSize=8;strokeColor=#FF0000;endFill=1;rounded=0" parent="3" edge="1">
          <mxGeometry x="130" y="90" as="geometry">
            <mxPoint x="130" y="135" as="targetPoint" />
            <mxPoint x="147.5" y="135" as="sourcePoint" />
          </mxGeometry>
        </mxCell>
        <mxCell id="i86bepWs2Cm8whGIE65p-41" value="Xác nhận đăng nhập thành công" style="rounded=1;whiteSpace=wrap;html=1;" parent="3" vertex="1">
          <mxGeometry x="80.5" y="115" width="119.5" height="40" as="geometry" />
        </mxCell>
        <mxCell id="i86bepWs2Cm8whGIE65p-47" value="Hiển thị các tab quản lý đơn hàng" style="rounded=1;whiteSpace=wrap;html=1;" parent="3" vertex="1">
          <mxGeometry x="80.5" y="190" width="120" height="43" as="geometry" />
        </mxCell>
        <mxCell id="i86bepWs2Cm8whGIE65p-53" value="Cập nhật trong cơ sở dữ liệu" style="rounded=1;whiteSpace=wrap;html=1;" parent="3" vertex="1">
          <mxGeometry x="80.5" y="342" width="120" height="40" as="geometry" />
        </mxCell>
        <mxCell id="i86bepWs2Cm8whGIE65p-55" value="" style="ellipse;html=1;shape=endState;fillColor=#000000;strokeColor=#ff0000;" parent="3" vertex="1">
          <mxGeometry x="126.5" y="432" width="30" height="30" as="geometry" />
        </mxCell>
        <mxCell id="i86bepWs2Cm8whGIE65p-56" value="" style="endArrow=classic;html=1;rounded=0;entryX=0.5;entryY=0;entryDx=0;entryDy=0;exitX=0.508;exitY=1.025;exitDx=0;exitDy=0;exitPerimeter=0;" parent="3" source="i86bepWs2Cm8whGIE65p-53" target="i86bepWs2Cm8whGIE65p-55" edge="1">
          <mxGeometry width="50" height="50" relative="1" as="geometry">
            <mxPoint x="-34.5" y="372" as="sourcePoint" />
            <mxPoint x="15.5" y="322" as="targetPoint" />
          </mxGeometry>
        </mxCell>
        <mxCell id="i86bepWs2Cm8whGIE65p-42" value="" style="endArrow=classic;html=1;rounded=0;entryX=0;entryY=0.5;entryDx=0;entryDy=0;exitX=1;exitY=0.5;exitDx=0;exitDy=0;" parent="1" source="i86bepWs2Cm8whGIE65p-43" target="i86bepWs2Cm8whGIE65p-41" edge="1">
          <mxGeometry width="50" height="50" relative="1" as="geometry">
            <mxPoint x="350" y="270" as="sourcePoint" />
            <mxPoint x="450" y="360" as="targetPoint" />
          </mxGeometry>
        </mxCell>
        <mxCell id="i86bepWs2Cm8whGIE65p-46" value="" style="curved=1;endArrow=classic;html=1;rounded=0;entryX=0.5;entryY=0;entryDx=0;entryDy=0;exitX=0.5;exitY=1;exitDx=0;exitDy=0;" parent="1" source="i86bepWs2Cm8whGIE65p-41" target="i86bepWs2Cm8whGIE65p-45" edge="1">
          <mxGeometry width="50" height="50" relative="1" as="geometry">
            <mxPoint x="400" y="410" as="sourcePoint" />
            <mxPoint x="450" y="360" as="targetPoint" />
            <Array as="points">
              <mxPoint x="580" y="300" />
              <mxPoint x="500" y="300" />
              <mxPoint x="400" y="300" />
              <mxPoint x="340" y="300" />
              <mxPoint x="280" y="300" />
            </Array>
          </mxGeometry>
        </mxCell>
        <mxCell id="i86bepWs2Cm8whGIE65p-48" value="" style="endArrow=classic;html=1;rounded=0;exitX=1;exitY=0.5;exitDx=0;exitDy=0;entryX=-0.008;entryY=0.5;entryDx=0;entryDy=0;entryPerimeter=0;" parent="1" source="i86bepWs2Cm8whGIE65p-45" target="i86bepWs2Cm8whGIE65p-47" edge="1">
          <mxGeometry width="50" height="50" relative="1" as="geometry">
            <mxPoint x="400" y="410" as="sourcePoint" />
            <mxPoint x="450" y="360" as="targetPoint" />
          </mxGeometry>
        </mxCell>
        <mxCell id="i86bepWs2Cm8whGIE65p-50" value="" style="endArrow=classic;html=1;rounded=0;entryX=1.004;entryY=0.525;entryDx=0;entryDy=0;entryPerimeter=0;exitX=0.517;exitY=1;exitDx=0;exitDy=0;exitPerimeter=0;" parent="1" source="i86bepWs2Cm8whGIE65p-47" target="i86bepWs2Cm8whGIE65p-49" edge="1">
          <mxGeometry width="50" height="50" relative="1" as="geometry">
            <mxPoint x="400" y="420" as="sourcePoint" />
            <mxPoint x="450" y="370" as="targetPoint" />
            <Array as="points">
              <mxPoint x="587" y="414" />
            </Array>
          </mxGeometry>
        </mxCell>
        <mxCell id="i86bepWs2Cm8whGIE65p-54" value="" style="endArrow=classic;html=1;rounded=0;exitX=1.013;exitY=0.575;exitDx=0;exitDy=0;exitPerimeter=0;entryX=0.008;entryY=0.55;entryDx=0;entryDy=0;entryPerimeter=0;" parent="1" source="i86bepWs2Cm8whGIE65p-51" target="i86bepWs2Cm8whGIE65p-53" edge="1">
          <mxGeometry width="50" height="50" relative="1" as="geometry">
            <mxPoint x="400" y="500" as="sourcePoint" />
            <mxPoint x="450" y="450" as="targetPoint" />
          </mxGeometry>
        </mxCell>
      </root>
    </mxGraphModel>
  </diagram>
</mxfile>
